<svg id="Layer_1" data-name="Layer 1" xmlns="http://www.w3.org/2000/svg" viewBox="0 0 34 192"><title>half-note-down</title><path d="M31.16,87.72c-2.73-4.8-11.28-5-19.1-.4s-11.94,12.17-9.21,17,11.28,5,19.1.4S33.89,92.51,31.16,87.72ZM19.93,101.23A18.67,18.67,0,0,1,10.81,104c-2.21,0-3.88-.63-4.49-1.7-1.22-2.14,1.2-7.7,7.75-11.53A18.67,18.67,0,0,1,23.19,88c2.21,0,3.88.63,4.49,1.7C28.9,91.84,26.48,97.39,19.93,101.23Z"/><rect x="-30.5" y="133.5" width="67" height="2" transform="translate(-131.5 137.5) rotate(-90)"/></svg>