<svg id="Layer_1" data-name="Layer 1" xmlns="http://www.w3.org/2000/svg" viewBox="0 0 192 192"><defs><style>.cls-1{fill:none;stroke:#000;stroke-miterlimit:10;stroke-width:2px;}</style></defs><title>stave-header-time-signature</title><line class="cls-1" y1="48" x2="192" y2="48"/><line class="cls-1" y1="72" x2="192" y2="72"/><line class="cls-1" y1="96" x2="192" y2="96"/><line class="cls-1" y1="120" x2="192" y2="120"/><line class="cls-1" y1="144" x2="192" y2="144"/><path d="M71.9,117.49c0-12.67-12.67-20.76-21-20.76a13.63,13.63,0,0,0-2.47.23L45.25,81.43C61,67.2,59.55,48.56,59.55,43.82c0-4.9-.64-18.63-9.58-23.32-12.14,4.9-13.1,23.74-13.1,27.15s.21,2.77,2.34,18c.16,1.14.4,2.59.71,4.29C26.77,83.09,16,93.79,16,110.25s12.78,32.58,30.24,32.58a30.19,30.19,0,0,0,8.41-1.12c1.85,9.54,3.09,17,3.09,19.86,0,10.54-7.67,15-13.42,15s-6.81-4-6.81-4c9.26,0,8.2-9.61,8.2-9.61h0a8.53,8.53,0,0,0-17.05,0h0c0,.06,0,.12,0,.19s0,0,0,0,0,.05,0,.08c.08,8,3.39,15.79,16,15.79,12.78,0,16.08-12.25,16.08-17a61.26,61.26,0,0,0-.75-9.15l-2.5-12.13C67.24,136.59,71.9,127,71.9,117.49ZM52,34.23c3.94,0,4.79,2.77,4.79,7.56,0,4.54-2.86,13.45-14.44,25.67-.16-.79-.32-1.54-.47-2.24C37.29,43.39,48,34.23,52,34.23ZM46.13,140.17c-20.44,0-24.06-19.59-24.06-25.34s4-17.18,20.54-31.16c.89,4.33,1.89,9.11,2.94,14.11a20.73,20.73,0,0,0-13.06,19.5c0,12.46,13.1,14.37,13.1,14.37-6.71-5.32-7-8.94-7-11.39,0-2.17,1.09-10.34,9.16-12.19,2.28,10.76,4.61,21.83,6.44,31.17A31.16,31.16,0,0,1,46.13,140.17ZM57,138.28c-1.72-8.36-4-19.38-6.3-30.57h.57c11.28,0,13.52,13.84,13.52,16.18C64.76,125.69,65.84,134.38,57,138.28Z"/><path d="M102.25,36.88l5.38-1.77.7-6.08-6.09,2V12.67H100.1V31.74l-6.66,2.19V16.05H91.29V34.64l-4.64,1.53L86,42.24l5.34-1.76V59l-4.64,1.53L86,66.64l5.34-1.76V82.46h2.15V64.17L100.1,62V79.07h2.15V61.28l5.38-1.77.7-6.08-6.09,2ZM93.44,58.33V39.78l6.66-2.19V56.14Z"/><path d="M136,78.28,159.16,48h4.39V78.28H168v7.18h-4.46V96h-9.89V85.46H136Zm3.49,0h14.17V59.72Z"/><path d="M136,126.28,159.16,96h4.39v30.28H168v7.18h-4.46V144h-9.89V133.46H136Zm3.49,0h14.17V107.72Z"/></svg>